<?xml version="1.0" standalone="no"?><!DOCTYPE svg PUBLIC "-//W3C//DTD SVG 1.1//EN" "http://www.w3.org/Graphics/SVG/1.1/DTD/svg11.dtd"><svg class="icon" height="512" viewBox="0 0 1024 1024" version="1.1" xmlns="http://www.w3.org/2000/svg"><path d="M614.4 396.8c0-56.32-46.08-102.4-102.4-102.4-56.32 0-102.4 46.08-102.4 102.4s46.08 102.4 102.4 102.4C568.32 499.2 614.4 453.12 614.4 396.8zM460.8 396.8c0-28.16 23.04-51.2 51.2-51.2 28.16 0 51.2 23.04 51.2 51.2s-23.04 51.2-51.2 51.2C483.84 448 460.8 424.96 460.8 396.8zM512 921.6c7.68 0 14.08-2.56 19.2-8.96 11.52-12.8 276.48-316.16 275.2-515.84C805.12 234.24 673.28 102.4 512 102.4 349.44 102.4 217.6 234.24 217.6 396.8c0 199.68 263.68 503.04 275.2 515.84C496.64 919.04 504.32 921.6 512 921.6zM512 153.6c133.12 0 243.2 108.8 243.2 243.2 1.28 151.04-183.04 385.28-243.2 459.52-60.16-72.96-243.2-307.2-243.2-459.52C268.8 262.4 377.6 153.6 512 153.6z" /></svg>